:SAMPLES-PER-SECOND 30
:FULLY-SPECIFIED
:DEGREES
447
root  -24.255 38.2369 -0.389809 58.4566 84.1733 64.6212
RightUpLeg  14.1318 -2.18339 -9.46446
RightLeg  36.6673 5.70418 4.29318
RightFoot  -14.398 0.346722 16.1919
RightToes  -6.40286e-010 0 -3.6325e-017
Spine  3.32253 3.17276 2.13427
Spine1  8.73376 5.35401 -9.55128
HEad  -16.4301 12.1383 -3.06336
LeftShoulder1  -0.771559 5.43797 -33.7223
LeftArm  3.76924 9.17602 -42.1788
LeftForeArm  26.9944 -15.2168 -7.07218
LeftHand  -0.0055298 7.76053 1.69018
RightShoulder  -0.932792 -6.02234 30.4402
RightArm  14.2423 -2.5612 49.6505
RightForeArm  28.9889 1.26769 7.83405
RightHand  0.0238715 1.34197 0.321334
LeftUpLeg  -16.5938 6.73592 -8.83028
LeftLeg  22.2691 9.44934 4.56677
LeftFoot  1.23181 -1.10096 9.89174
LeftToes  1.32783e-010 1.73515e-011 1.59258e-011
448
root  -23.1164 38.2913 -0.546173 59.7951 83.0219 65.9087
RightUpLeg  7.55516 0.118903 -10.9335
RightLeg  48.6976 5.46955 6.32231
RightFoot  -3.1474 -0.983082 14.4811
RightToes  -6.40286e-010 0 -3.6325e-017
Spine  3.67896 3.50314 0.840539
Spine1  8.44133 5.52917 -9.76737
HEad  -17.4668 17.1678 -5.2171
LeftShoulder1  -0.787598 5.49666 -33.3522
LeftArm  4.12344 9.44121 -42.7683
LeftForeArm  25.9386 -15.8856 -6.7259
LeftHand  -0.00864765 7.70249 1.57222
RightShoulder  -0.830519 -5.77946 29.882
RightArm  14.2657 -5.4808 49.2327
RightForeArm  30.7933 1.5345 7.74772
RightHand  0.0704301 0.238377 1.40014
LeftUpLeg  -15.0512 6.62672 -10.134
LeftLeg  23.0065 10.1602 5.03983
LeftFoot  -0.859786 -0.905889 9.90768
LeftToes  1.32783e-010 1.73515e-011 1.59258e-011
449
root  -22.0116 38.345 -0.669564 64.1943 82.6648 70.5822
RightUpLeg  1.83741 1.43239 -11.6574
RightLeg  57.5862 4.90177 7.79603
RightFoot  5.10836 -1.42056 9.8004
RightToes  -6.40286e-010 0 -3.6325e-017
Spine  3.62864 3.39917 -0.284898
Spine1  9.32692 5.21928 -9.47508
HEad  -19.0922 22.5416 -7.44391
LeftShoulder1  -0.826947 5.58725 -33.5193
LeftArm  6.74352 8.99761 -42.7137
LeftForeArm  23.6717 -17.3522 -6.18064
LeftHand  -0.00994787 7.21586 1.68486
RightShoulder  -0.864412 -5.8656 29.9917
RightArm  15.0049 -7.46015 47.9289
RightForeArm  28.8141 3.65165 7.87412
RightHand  0.0421285 1.57253 0.602738
LeftUpLeg  -13.1508 6.779 -10.8552
LeftLeg  23.6144 9.84262 4.99655
LeftFoot  -2.9551 -0.705864 9.83578
LeftToes  1.32783e-010 1.73515e-011 1.59258e-011
450
root  -20.9703 38.4487 -0.785283 69.7277 82.8005 76.331
RightUpLeg  -2.86902 1.74108 -12.1989
RightLeg  62.4939 3.88244 7.55083
RightFoot  2.14088 -1.2144 10.3672
RightToes  -6.40286e-010 0 -3.6325e-017
Spine  3.92399 3.00911 -1.05927
Spine1  9.59846 4.58046 -9.05807
HEad  -20.8117 28.0531 -9.90514
LeftShoulder1  -0.88708 5.74252 -33.4467
LeftArm  9.79098 8.84835 -42.7251
LeftForeArm  21.5827 -19.2866 -5.32305
LeftHand  -0.0200139 6.65645 1.36001
RightShoulder  -0.940816 -6.05378 30.3115
RightArm  16.0084 -8.77629 46.5888
RightForeArm  25.6872 5.90329 8.0354
RightHand  -0.0149769 2.43257 -0.459424
LeftUpLeg  -10.9873 6.1556 -11.0735
LeftLeg  23.4753 10.0793 4.93141
LeftFoot  -4.6823 -0.529691 9.5773
LeftToes  1.32783e-010 1.73515e-011 1.59258e-011
451
root  -19.9426 38.5787 -0.898188 78.9401 83.3067 85.6855
RightUpLeg  -7.22013 1.50455 -12.2622
RightLeg  63.6772 3.39326 6.90876
RightFoot  1.53584 -1.0966 9.78888
RightToes  -6.40286e-010 0 -3.6325e-017
Spine  4.19494 2.61369 -1.31722
Spine1  9.48618 3.96461 -8.57575
HEad  -21.9651 31.7724 -12.1681
LeftShoulder1  -0.85762 5.67801 -33.2714
LeftArm  11.0029 8.79282 -43.0335
LeftForeArm  20.2354 -20.7846 -4.62745
LeftHand  -0.00985027 6.91967 1.92361
RightShoulder  -0.965274 -6.10079 30.584
RightArm  16.7835 -10.438 45.129
RightForeArm  23.1211 8.98631 7.62859
RightHand  0.0411728 3.59503 0.372395
LeftUpLeg  -8.72377 5.2943 -10.9153
LeftLeg  22.9462 10.0447 4.61112
LeftFoot  -6.12065 -0.404209 9.64881
LeftToes  1.32783e-010 1.73515e-011 1.59258e-011
452
root  -18.9101 38.7374 -0.983143 92.348 83.7969 99.1745
RightUpLeg  -10.7429 1.29172 -11.8409
RightLeg  61.3387 2.82473 5.1052
RightFoot  0.0306747 -0.929295 9.3072
RightToes  -6.40286e-010 0 -3.6325e-017
Spine  4.2966 2.27246 -1.77555
Spine1  9.35514 3.29614 -7.23798
HEad  -22.4724 35.2853 -13.5529
LeftShoulder1  -0.894994 5.77146 -33.2759
LeftArm  11.1518 8.56074 -43.4339
LeftForeArm  19.9291 -22.0574 -4.17327
LeftHand  -0.00782224 7.19093 1.85073
RightShoulder  -0.911485 -5.99812 29.9543
RightArm  17.5191 -11.8992 44.7919
RightForeArm  18.5796 11.3577 7.05657
RightHand  -0.0881937 4.899 -1.29272
LeftUpLeg  -6.30108 4.52729 -10.4533
LeftLeg  21.9909 9.55485 4.07142
LeftFoot  -7.33937 -0.291319 9.58365
LeftToes  1.32783e-010 1.73515e-011 1.59258e-011
453
root  -17.8889 38.8466 -1.04215 107.331 83.9063 114.393
RightUpLeg  -13.3166 1.37919 -11.3635
RightLeg  56.165 2.70344 3.91965
RightFoot  -1.43237 -0.744206 8.45663
RightToes  -6.40286e-010 0 -3.6325e-017
Spine  4.43335 1.93109 -1.38552
Spine1  9.33796 3.02885 -7.31464
HEad  -23.057 37.6595 -14.1118
LeftShoulder1  -0.823867 5.63581 -32.4733
LeftArm  10.4641 8.57562 -43.8418
LeftForeArm  19.8745 -23.5702 -4.03192
LeftHand  -0.0128623 6.64612 1.91454
RightShoulder  -0.945139 -6.07466 30.1733
RightArm  17.8138 -12.2881 44.5989
RightForeArm  17.0316 12.6351 6.59897
RightHand  -0.0251129 3.62475 -0.556019
LeftUpLeg  -3.90943 4.50574 -9.78759
LeftLeg  21.3045 8.25714 3.34428
LeftFoot  -8.62865 -0.174443 9.53468
LeftToes  1.32783e-010 1.73515e-011 1.59258e-011
454
root  -16.9027 38.9102 -1.09765 122.413 83.3989 129.574
RightUpLeg  -15.1386 1.41421 -11.207
RightLeg  48.5569 2.88081 3.15931
RightFoot  -2.54647 -0.642985 8.1371
RightToes  -6.40286e-010 0 -3.6325e-017
Spine  4.63123 1.73309 -1.44586
Spine1  9.14997 2.7198 -6.47639
HEad  -23.4599 39.0477 -14.5871
LeftShoulder1  -0.894156 5.79139 -32.9101
LeftArm  10.3477 8.0829 -43.21
LeftForeArm  20.2666 -25.4588 -4.37442
LeftHand  -0.00588555 6.86299 2.24633
RightShoulder  -0.866207 -5.89379 29.6377
RightArm  17.4947 -12.2414 44.9781
RightForeArm  16.2694 13.0002 6.43042
RightHand  -0.109029 4.25599 -1.57155
LeftUpLeg  -1.74644 4.28452 -9.2869
LeftLeg  20.5734 6.93721 2.78992
LeftFoot  -9.98286 -0.0521577 9.49611
LeftToes  1.32783e-010 1.73515e-011 1.59258e-011
455
root  -15.9058 38.9081 -1.12907 134.622 82.1587 141.773
RightUpLeg  -16.1742 1.42205 -11.523
RightLeg  39.5882 2.82746 2.25516
RightFoot  -3.87624 -0.618416 9.0658
RightToes  -6.40286e-010 0 -3.6325e-017
Spine  4.53579 1.54501 -1.08554
Spine1  9.20695 2.74057 -6.72181
HEad  -22.9942 39.9715 -13.8656
LeftShoulder1  -0.810177 5.61503 -32.2189
LeftArm  9.12109 8.07988 -43.2789
LeftForeArm  21.9813 -27.342 -4.70307
LeftHand  -0.0169682 6.16979 2.13863
RightShoulder  -0.949699 -6.09047 30.1431
RightArm  16.8267 -11.4287 45.0056
RightForeArm  18.5021 12.8698 6.27398
RightHand  -0.00380303 3.32272 -0.304193
LeftUpLeg  0.210192 3.68721 -9.10522
LeftLeg  20.0277 5.83198 2.52007
LeftFoot  -11.4269 0.0756177 9.58075
LeftToes  1.32783e-010 1.73515e-011 1.59258e-011
456
root  -14.8844 38.8911 -1.13396 141.741 80.4521 148.789
RightUpLeg  -16.7454 1.72163 -12.2592
RightLeg  30.2674 2.04846 1.07489
RightFoot  -4.80612 -0.603433 9.95278
RightToes  -6.40286e-010 0 -3.6325e-017
Spine  4.09822 1.5506 -1.16586
Spine1  9.58242 2.86006 -6.68775
HEad  -21.7165 40.5352 -12.3772
LeftShoulder1  -0.78861 5.54747 -32.4257
LeftArm  8.41356 7.64822 -42.6889
LeftForeArm  23.0173 -28.9456 -5.00882
LeftHand  -0.0150868 6.48423 1.89027
RightShoulder  -0.925198 -6.02719 30.0812
RightArm  16.0954 -10.6942 45.3934
RightForeArm  18.2197 12.3998 6.32527
RightHand  -0.0194823 3.53845 -0.504382
LeftUpLeg  1.87879 3.31148 -8.97878
LeftLeg  20.1022 4.10476 2.06128
LeftFoot  -12.6814 0.185693 9.30548
LeftToes  1.32783e-010 1.73515e-011 1.59258e-011
457
root  -13.8609 38.8428 -1.13877 146.735 78.4894 153.483
RightUpLeg  -17.3159 2.09864 -13.3647
RightLeg  21.9181 1.25028 0.413303
RightFoot  -5.27476 -0.542516 9.53713
RightToes  -6.40286e-010 0 -3.6325e-017
Spine  3.74316 1.57745 -1.07284
Spine1  9.6549 3.02997 -6.60614
HEad  -21.5926 40.3129 -12.2509
LeftShoulder1  -0.801784 5.58241 -32.4108
LeftArm  7.56021 7.39906 -42.4309
LeftForeArm  22.9952 -29.8551 -5.22211
LeftHand  -0.0119259 6.55058 2.11309
RightShoulder  -0.925261 -6.03859 29.9208
RightArm  14.4195 -9.70244 46.0475
RightForeArm  18.8562 11.126 6.40323
RightHand  -0.0528318 3.44108 -0.943284
LeftUpLeg  3.54679 2.7429 -8.97545
LeftLeg  19.6533 2.84661 1.72238
LeftFoot  -14.0263 0.296734 9.05488
LeftToes  1.32783e-010 1.73515e-011 1.59258e-011
458
root  -12.8132 38.7475 -1.16276 149.577 76.1448 155.899
RightUpLeg  -17.6711 1.62234 -14.6977
RightLeg  14.5347 2.95738 0.228558
RightFoot  -5.4023 -0.532941 9.55578
RightToes  -6.40286e-010 0 -3.6325e-017
Spine  3.3807 1.62691 -0.785855
Spine1  9.56873 3.31116 -6.99025
HEad  -21.1597 39.6521 -12.2073
LeftShoulder1  -0.785766 5.538 -32.4638
LeftArm  7.19603 7.45226 -41.9248
LeftForeArm  23.0427 -30.55 -5.38296
LeftHand  -0.013319 6.33981 2.26214
RightShoulder  -0.931832 -6.04416 30.0999
RightArm  13.1899 -9.41194 46.0699
RightForeArm  19.3156 11.1111 6.06098
RightHand  -0.0583023 3.20645 -0.986442
LeftUpLeg  5.05974 1.23892 -9.48978
LeftLeg  19.3718 2.04227 1.66232
LeftFoot  -15.3709 0.399029 8.67251
LeftToes  1.32783e-010 1.73515e-011 1.59258e-011
459
root  -11.7424 38.5969 -1.15517 153.63 73.0939 159.464
RightUpLeg  -17.5197 -1.7689 -14.4837
RightLeg  7.93851 11.6505 -1.39572
RightFoot  -5.97536 -0.53678 10.5158
RightToes  -6.40286e-010 0 -3.6325e-017
Spine  2.82399 1.40967 -0.379517
Spine1  9.91197 3.27803 -7.30109
HEad  -21.2181 39.003 -12.3559
LeftShoulder1  -0.818062 5.61329 -32.614
LeftArm  7.15176 6.93224 -41.5979
LeftForeArm  22.6574 -30.1329 -5.30582
LeftHand  -0.0112782 6.17666 2.83541
RightShoulder  -0.93822 -6.0635 30.0743
RightArm  12.4583 -8.92768 46.2125
RightForeArm  19.8016 11.3255 5.77012
RightHand  0.0350541 2.51158 0.307196
LeftUpLeg  6.16308 -0.737424 -9.56503
LeftLeg  19.8397 0.761101 1.25148
LeftFoot  -16.9822 0.525553 8.58454
LeftToes  1.32783e-010 1.73515e-011 1.59258e-011
460
root  -10.6359 38.4254 -1.11104 156.97 70.0087 162.581
RightUpLeg  -17.3201 -5.42643 -13.4489
RightLeg  3.79582 24.0569 -3.79021
RightFoot  -7.27786 -0.417957 10.5163
RightToes  -6.40286e-010 0 -3.6325e-017
Spine  3.17578 1.28616 0.58962
Spine1  9.42346 3.35056 -7.97975
HEad  -21.0466 37.8478 -12.453
LeftShoulder1  -0.780622 5.52356 -32.4873
LeftArm  7.01405 6.6927 -41.5654
LeftForeArm  22.5039 -28.8701 -5.02219
LeftHand  -0.016463 5.81966 3.13603
RightShoulder  -0.950285 -6.08747 30.205
RightArm  12.7666 -8.60755 45.9084
RightForeArm  18.3733 11.7263 5.77445
RightHand  -0.0271871 3.3146 -0.600852
LeftUpLeg  7.45794 -3.24705 -9.28561
LeftLeg  20.4702 -0.0602677 0.795832
LeftFoot  -18.7732 0.635607 8.03585
LeftToes  1.32783e-010 1.73515e-011 1.59258e-011
461
root  -9.41619 38.1883 -1.01394 160.392 66.2327 166.036
RightUpLeg  -16.7611 -6.00656 -13.7299
RightLeg  3.91716 28.7248 -3.56017
RightFoot  -9.03053 -0.319487 12.6625
RightToes  -6.40286e-010 0 -3.6325e-017
Spine  2.90851 1.17229 0.646271
Spine1  10.008 3.05731 -7.24654
HEad  -20.9862 36.4824 -12.9635
LeftShoulder1  -0.796917 5.54327 -32.9102
LeftArm  7.07027 5.74534 -41.686
LeftForeArm  22.1184 -26.5024 -4.50403
LeftHand  -0.0129842 6.10936 2.74995
RightShoulder  -0.919893 -6.02916 29.8422
RightArm  13.6279 -7.92185 45.7481
RightForeArm  17.3591 11.6804 6.04258
RightHand  -0.0624375 3.73039 -1.05509
LeftUpLeg  8.77397 -6.80026 -8.6551
LeftLeg  21.7606 -0.672976 0.209419
LeftFoot  -20.9254 0.749632 7.42884
LeftToes  1.32783e-010 1.73515e-011 1.59258e-011
